<?xml version="1.0" encoding="utf-8"?>
<!-- Generator: Adobe Illustrator 22.1.0, SVG Export Plug-In . SVG Version: 6.00 Build 0)  -->
<svg version="1.1" id="Слой_1" xmlns="http://www.w3.org/2000/svg" xmlns:xlink="http://www.w3.org/1999/xlink" x="0px" y="0px"
	 viewBox="0 0 228 228" style="enable-background:new 0 0 228 228;" xml:space="preserve">
<style type="text/css">
	.st0{fill:none;stroke:#000000;stroke-miterlimit:10;}
	.st1{opacity:0.1;fill:#01FF15;stroke:#000000;stroke-width:4;stroke-miterlimit:10;}
	.st2{fill:#FFFFFF;stroke:#000000;stroke-miterlimit:10;}
	.st3{fill:#42210B;stroke:#754C24;stroke-miterlimit:10;}
	.st4{fill:#534741;stroke:#000000;stroke-miterlimit:10;}
	.st5{fill:#1A1A1A;stroke:#000000;stroke-miterlimit:10;}
	.st6{fill:#FFF9DF;stroke:#000000;stroke-miterlimit:10;}
	.st7{fill:#42210B;stroke:#42210B;stroke-miterlimit:10;}
	.st8{stroke:#000000;stroke-miterlimit:10;}
	.st9{fill:none;stroke:#000000;stroke-width:3;stroke-miterlimit:10;}
	.st10{stroke:#39B54A;stroke-miterlimit:10;}
	.st11{fill:#333333;stroke:#000000;stroke-miterlimit:10;}
</style>
<g>
	<ellipse class="st0" cx="123" cy="104.2" rx="65.1" ry="65.2"/>
	<ellipse class="st1" cx="122.8" cy="104.2" rx="61.1" ry="61.2"/>
	<path class="st2" d="M90,63.9"/>
	<path class="st3" d="M161.3,63.1c0.2,0,0.4,0,0.7,0c0.8,0,2.9,0.3,5.5,2c1,0.7,3.9,2.7,6.5,6.8c2.7,4.3,3.5,8.3,4,10.6
		c0.4,1.9,1.1,5.7,0.2,9.2c-0.6,2.1-1.8,4.3-2.3,3.8c-0.9-0.8,1.4-6.5-1.1-14.9c-0.6-2-1.8-6-4.7-9.5c-3.3-3.9-6.6-4.6-7.5-4.7"/>
	<path class="st2" d="M153.7,119"/>
	<path class="st2" d="M160.8,95"/>
	<path class="st2" d="M91.3,130.7"/>
	<path class="st2" d="M81.8,123"/>
	<path class="st2" d="M146.4,129.7"/>
	<path class="st2" d="M161.9,92.4"/>
	<path class="st2" d="M150.7,140.5"/>
	<path class="st4" d="M157.8,61.2c0.2-0.1,0.6-0.3,1-0.4c1-0.4,3.8-1.3,7.4-0.7c1.4,0.2,5.4,1,9.4,4.3c4.2,3.5,5.8,7.7,6.8,10.1
		c0.8,1.9,2.3,6,1.5,10.6c-0.4,2.7-1.7,5.9-2.5,5.7c-1.3-0.4,0.9-8.3-3.5-16.8c-1.1-2-3.2-6-7.5-8.4c-4.8-2.7-9.2-1.7-10.4-1.4"/>
	<path class="st5" d="M158.6,62.9c0.1-0.3,0.2-0.7,0.4-1.2c0.5-1.3,1.9-4.5,5.1-7.2c1.3-1.1,4.9-3.9,10.4-4.4
		c5.8-0.5,10.2,2,12.8,3.4c2.1,1.1,6.3,3.5,9.2,8.4c1.8,2.9,3.3,7,2.4,7.4c-1.3,0.8-5.6-8.4-15.5-12.4c-2.4-1-7-2.7-12.1-1.1
		c-5.7,1.8-8.3,6.6-8.9,8"/>
	<path class="st5" d="M157.7,66.4c0.1-0.6,0.3-1.5,0.5-2.5c0.6-2.6,2.3-9.1,5.9-14.9c1.4-2.3,5.6-8.3,11.9-9.9
		c6.6-1.7,11.5,2.5,14.4,5c2.3,2,7,6.1,10.2,15.4c1.9,5.5,3.5,13.3,2.5,14.3c-1.4,1.6-6.1-15.9-17-22.4c-2.6-1.6-7.8-4.5-13.6-0.6
		c-6.5,4.3-9.5,14.1-10.3,16.9"/>
	<path class="st2" d="M115.2,120.3"/>
	<path class="st2" d="M79.8,131.2"/>
	<path class="st2" d="M113.1,85.1"/>
	<path class="st4" d="M160.7,64.6c0.1-0.3,0.2-0.6,0.4-1.1c0.5-1.1,2-3.9,5.2-6.1c1.3-0.9,4.9-3.2,10.3-3.3c5.7-0.1,10,2.3,12.5,3.7
		c2,1.1,6,3.4,8.8,7.9c1.6,2.7,3,6.3,2.2,6.7c-1.3,0.6-5.2-7.8-14.8-11.8c-2.3-1-6.8-2.8-11.8-1.6c-5.6,1.3-8.3,5.4-9,6.6"/>
	<path class="st2" d="M131.8,163.9"/>
	<path class="st2" d="M137.6,162.6"/>
	<path class="st6" d="M111.2,153.9c-0.7-6.8-1.3-13.6-2-20.4c-14.3-0.2-18.9-1.8-19.4-3.7c-0.7-2.9,7.4-6.8,6.2-9.3
		c-0.7-1.4-3.8-0.9-4-1.8c-0.8-3.4,20.9-9.9,20.7-10.5c-0.3-0.7-21.6,5.4-22.8,3c-0.6-1.1,3.8-3.4,6.5-10c0.3-0.6,0.4-1.1,0.6-1.5
		c-14.9-0.8-22.5-2.3-22.8-4.5c-0.4-2.6,8.9-6.1,27.9-10.7c1.5-0.2,3.4-0.7,3.7-1.8c0.4-1.5-2.5-2.6-4-5.7c-2-3.8-0.6-8-0.1-9.7
		c1.5-4.8,4.9-7.5,7.3-9.4c3.2-2.5,6.1-3.7,7.9-4.4c1.6-0.6,4-1.1,8.8-2.1c5.3-1.1,7.3-1.3,8.2-1.4c2.3-0.2,2.3,0,4.9-0.3
		c2.2-0.2,3.2-0.1,3.6-0.1c2.1,0,3.6,0.2,4,0.2c1.4,0.1,2.6,0.3,3.9,0.6c2.3,0.6,3.8,1.5,5.4,2.6c1.8,1.1,4.4,3,7,5.9
		c7.2,8.8,7.8,15.2,7.1,19.4c-1,5.7-5.5,5.3-14.2,16.8c-2.5,3.3-4.3,5.7-6.2,9.3c-5.7,11.1-6.8,23.6-6.8,23.6c0,0-0.4,6.1-0.3,8.7
		c0.2,9.9,8.2,15.9,6.5,17.7c-1.1,1.2-4.5-1.4-12.9-2.2c-1.4-0.1-2.3-0.1-2.7-0.1c-4.4-0.2-7.5,1-9.5,1.5
		C121,154.5,117,155,111.2,153.9z"/>
	<path class="st7" d="M89.9,111.3c0.9,1,3.3,0.6,8-0.1c5.6-0.9,5.3-1.6,9.2-1.9c1.6-0.1,3.3-0.2,5.6-1c1.6-0.6,1.7-0.9,2.4-0.9
		c3.4,0,5.1,9.4,6.8,9.2c0.6-0.1,0.8-1.1,0.9-1.6c0.9-3.7-1.6-8.4-5.3-11.2c-4.5-3.5-10.1-3.5-12-3.5c-1.4,0-3.5,0.2-4.7,0.3
		c-2.3,0.2-3.5,0.4-4.4,0.7c-2.9,1-4.4,3.2-4.9,3.9C91.2,105.6,88.5,109.6,89.9,111.3z"/>
	<path class="st8" d="M90.3,141.9"/>
	<g>
		<path class="st7" d="M90.3,123.3c-2.6,2.1-3.7,4.6-4.1,5.8c-0.8,2.1-1.7,4.3-1,7c0.2,0.6,0.8,3,2.9,4.6c2.3,1.7,4.9,1.5,8.8,1.1
			c2.4-0.3,6.9-0.8,12-3.6c1.9-1.1,5.2-2.9,7.9-6.3c0.1-0.1,0.1-0.2,0.2-0.2c0,0,0-0.1,0.1-0.1c0.2-0.2,7.7-16.3,5.2-17.4
			c-0.5-0.2-0.9,0.4-1.7,0.2c-1.9-0.5-1.3-4.5-2.8-5.2c-1.9-0.8-3.6,3.3-9.7,6.4c-0.3,0.2-3.1,1.1-8.5,3.2c-1.9,0.8-3.4,1.3-5.4,2.4
			C92.3,122,91.3,122.5,90.3,123.3z"/>
	</g>
	<path class="st8" d="M100.8,152.6"/>
	<path class="st8" d="M105.1,159.2"/>
	<path class="st9" d="M106.4,82.3l23.8,2.2c1.2,0.2,2.3,0.3,3.5,0.5l0,0c0.6,0.2,1.4,0.6,2.2,1.3c1.4,1.2,1.9,2.5,2.2,3.3
		c1.2,3.2,0.1,6.2-0.3,7.1"/>
	<path class="st10" d="M109,83.9c-0.2,0.8-0.5,1.1-5.4,6.4c-2.8,3-3.1,3.4-3.6,3.3c-1.8-0.4-1.9-7.4-0.4-13.1
		c0.7-2.8,1.6-6.2,3.5-6.4C105.8,73.7,110.2,79.6,109,83.9z"/>
	<path class="st2" d="M190.9,137.8"/>
	<path class="st2" d="M181.1,107.2"/>
	<path class="st2" d="M174.5,110.4"/>
	<path class="st2" d="M167,102.9"/>
	<path class="st2" d="M164.7,101.6"/>
	<path class="st11" d="M164.3,59.9c0.2-0.2,0.6-0.4,1-0.6c1.1-0.6,3.9-2,7.8-2c1.5,0,5.9,0.2,10.3,3.3c4.7,3.2,6.7,7.6,7.9,10.2
		c0.9,2,2.8,6.3,2.4,11.5c-0.2,3.1-1.3,6.9-2.2,6.7c-1.4-0.2,0.4-9.3-5-18.1c-1.3-2.1-3.8-6.2-8.6-8.1c-5.3-2.2-9.9-0.4-11.2,0.1"/>
	<path class="st2" d="M161.9,175"/>
	<g>
		<image style="overflow:visible;" width="150" height="112" xlink:href="F8F74FFB.png"  transform="matrix(1 0 0 1 50 116)">
		</image>
	</g>
</g>
</svg>
